<svg width="100" height="100" viewBox="0 0 100 100" fill="none" xmlns="http://www.w3.org/2000/svg">
<path fill-rule="evenodd" clip-rule="evenodd" d="M83.1395 64.9613V34.0385C83.1421 32.6138 82.7633 31.2147 82.0431 29.9873C81.3229 28.7599 80.2877 27.7496 79.0454 27.0618L53.2938 12.9299C52.1311 12.2892 50.8263 11.9534 49.5001 11.9534C48.1738 11.9534 46.869 12.2892 45.7061 12.9299L19.9819 27.0618C18.7397 27.7496 17.7044 28.7599 16.9841 29.9873C16.2639 31.2147 15.8853 32.6138 15.8879 34.0385V64.9613C15.8853 66.386 16.2639 67.7853 16.9841 69.0125C17.7044 70.2399 18.7397 71.2504 19.9819 71.9382L45.7061 86.0699C46.869 86.7106 48.1738 87.0466 49.5001 87.0466C50.8263 87.0466 52.1311 86.7106 53.2938 86.0699L79.0181 71.9382C80.2653 71.2539 81.3063 70.2451 82.0314 69.0174C82.7565 67.7898 83.1393 66.3888 83.1395 64.9613ZM16.1881 20.0712C13.7026 21.449 11.6314 23.4723 10.1909 25.9294C8.75052 28.3865 7.99384 31.1872 8.00004 34.0385V64.9613C7.99384 67.8128 8.75052 70.6135 10.1909 73.0705C11.6314 75.5276 13.7026 77.5508 16.1881 78.9286L41.9124 93.0468C44.238 94.3281 46.8475 95 49.5001 95C52.1524 95 54.7622 94.3281 57.0877 93.0468L82.8118 78.9286C85.2963 77.5499 87.3668 75.5262 88.8072 73.0693C90.2474 70.6126 91.0046 67.8124 91 64.9613V34.0385C91.0046 31.1874 90.2474 28.3874 88.8072 25.9305C87.3668 23.4737 85.2963 21.4502 82.8118 20.0712L57.0877 5.95312C54.7622 4.67174 52.1524 4 49.5001 4C46.8475 4 44.238 4.67174 41.9124 5.95312L16.1881 20.0712Z" fill="url(#paint0_linear_318_325)"/>
<path fill-rule="evenodd" clip-rule="evenodd" d="M66.3625 62.8704C66.7691 63.2322 67.0968 63.6775 67.3241 64.1768C67.5514 64.6763 67.673 65.2191 67.6813 65.7697C67.6899 66.3202 67.5844 66.8666 67.3725 67.3731C67.1606 67.8793 66.8466 68.3348 66.451 68.7094C61.8435 72.7885 55.9416 75.0236 49.841 74.9998C36.1223 74.9998 25 64.029 25 50.5C25 36.9707 36.1223 26.0002 49.841 26.0002C56.1111 25.9751 62.1649 28.3362 66.8198 32.6217C67.3047 33.1177 67.6578 33.7317 67.8458 34.4056C68.0337 35.0795 68.0501 35.7911 67.8937 36.4732C67.7373 37.1556 67.4129 37.7858 66.9515 38.3048C66.4899 38.8235 65.9064 39.214 65.2561 39.4388C64.2642 39.7911 63.2002 39.8764 62.1666 39.6867C61.1329 39.4969 60.1647 39.0384 59.3557 38.3555C56.6192 36.2914 53.3032 35.183 49.9 35.195C47.8895 35.1307 45.8865 35.4792 44.0105 36.2197C42.1344 36.9605 40.4233 38.0779 38.9786 39.5062C37.5342 40.9344 36.3857 42.6443 35.6014 44.534C34.8169 46.4239 34.4127 48.4552 34.4127 50.5074C34.4127 52.5597 34.8169 54.5909 35.6014 56.4809C36.3857 58.3708 37.5342 60.0804 38.9786 61.5087C40.4233 62.937 42.1344 64.0546 44.0105 64.7951C45.8865 65.5356 47.8895 65.8841 49.9 65.8198C53.1612 65.8291 56.3452 64.8092 59.0164 62.9003C61.2439 61.29 64.4594 60.929 66.392 62.9003L66.3625 62.8704Z" fill="#ffffff"/>
<defs>
<linearGradient id="paint0_linear_318_325" x1="19.5043" y1="-2.69595" x2="79.9056" y2="101.466" gradientUnits="userSpaceOnUse">
<stop stop-color="#5AB2DA"/>
<stop offset="0.01" stop-color="#5AB1D9"/>
<stop offset="0.02" stop-color="#5BB1D9"/>
<stop offset="0.03" stop-color="#5DB1D9"/>
<stop offset="0.04" stop-color="#5EB1D9"/>
<stop offset="0.05" stop-color="#5FB1D9"/>
<stop offset="0.06" stop-color="#5FB1D9"/>
<stop offset="0.07" stop-color="#60B1D9"/>
<stop offset="0.08" stop-color="#61B1D9"/>
<stop offset="0.09" stop-color="#62B0D9"/>
<stop offset="0.1" stop-color="#63B0D9"/>
<stop offset="0.11" stop-color="#64B0D9"/>
<stop offset="0.12" stop-color="#65AFD9"/>
<stop offset="0.13" stop-color="#66AFD9"/>
<stop offset="0.14" stop-color="#66AFD9"/>
<stop offset="0.15" stop-color="#67AED8"/>
<stop offset="0.16" stop-color="#68AED8"/>
<stop offset="0.17" stop-color="#69ADD8"/>
<stop offset="0.18" stop-color="#6AADD8"/>
<stop offset="0.19" stop-color="#6BACD8"/>
<stop offset="0.2" stop-color="#6CACD8"/>
<stop offset="0.21" stop-color="#6CABD8"/>
<stop offset="0.22" stop-color="#6DABD7"/>
<stop offset="0.23" stop-color="#6EAAD7"/>
<stop offset="0.24" stop-color="#6FA9D7"/>
<stop offset="0.25" stop-color="#70A9D7"/>
<stop offset="0.26" stop-color="#70A8D7"/>
<stop offset="0.27" stop-color="#71A8D6"/>
<stop offset="0.28" stop-color="#72A7D6"/>
<stop offset="0.29" stop-color="#72A6D6"/>
<stop offset="0.3" stop-color="#74A5D6"/>
<stop offset="0.31" stop-color="#74A4D5"/>
<stop offset="0.32" stop-color="#75A4D5"/>
<stop offset="0.33" stop-color="#76A3D5"/>
<stop offset="0.34" stop-color="#76A2D5"/>
<stop offset="0.35" stop-color="#77A1D4"/>
<stop offset="0.36" stop-color="#77A1D4"/>
<stop offset="0.37" stop-color="#789FD4"/>
<stop offset="0.38" stop-color="#799ED3"/>
<stop offset="0.39" stop-color="#7A9ED3"/>
<stop offset="0.4" stop-color="#7A9DD3"/>
<stop offset="0.41" stop-color="#7B9CD3"/>
<stop offset="0.42" stop-color="#7B9BD2"/>
<stop offset="0.43" stop-color="#7C99D2"/>
<stop offset="0.44" stop-color="#7D98D1"/>
<stop offset="0.45" stop-color="#7D97D1"/>
<stop offset="0.46" stop-color="#7E96D1"/>
<stop offset="0.47" stop-color="#7E95D1"/>
<stop offset="0.48" stop-color="#7F94D0"/>
<stop offset="0.49" stop-color="#7F93D0"/>
<stop offset="0.5" stop-color="#8091CF"/>
<stop offset="0.51" stop-color="#8190CF"/>
<stop offset="0.52" stop-color="#818FCF"/>
<stop offset="0.53" stop-color="#828ECE"/>
<stop offset="0.54" stop-color="#828DCE"/>
<stop offset="0.55" stop-color="#838CCE"/>
<stop offset="0.56" stop-color="#838BCD"/>
<stop offset="0.57" stop-color="#8489CC"/>
<stop offset="0.58" stop-color="#8487CC"/>
<stop offset="0.59" stop-color="#8586CC"/>
<stop offset="0.6" stop-color="#8585CB"/>
<stop offset="0.61" stop-color="#8584CB"/>
<stop offset="0.62" stop-color="#8683CB"/>
<stop offset="0.63" stop-color="#8680CA"/>
<stop offset="0.64" stop-color="#877FC9"/>
<stop offset="0.65" stop-color="#877DC9"/>
<stop offset="0.66" stop-color="#887CC8"/>
<stop offset="0.67" stop-color="#887BC8"/>
<stop offset="0.68" stop-color="#8879C8"/>
<stop offset="0.69" stop-color="#8878C7"/>
<stop offset="0.7" stop-color="#8975C6"/>
<stop offset="0.71" stop-color="#8974C6"/>
<stop offset="0.72" stop-color="#8A73C5"/>
<stop offset="0.73" stop-color="#8A71C5"/>
<stop offset="0.74" stop-color="#8A70C5"/>
<stop offset="0.75" stop-color="#8A6EC4"/>
<stop offset="0.76" stop-color="#8B6DC4"/>
<stop offset="0.77" stop-color="#8B6AC3"/>
<stop offset="0.78" stop-color="#8B68C2"/>
<stop offset="0.79" stop-color="#8C67C2"/>
<stop offset="0.8" stop-color="#8C65C1"/>
<stop offset="0.81" stop-color="#8C64C1"/>
<stop offset="0.82" stop-color="#8C62C0"/>
<stop offset="0.83" stop-color="#8D5FBF"/>
<stop offset="0.84" stop-color="#8D5DBF"/>
<stop offset="0.85" stop-color="#8D5CBE"/>
<stop offset="0.86" stop-color="#8D5ABE"/>
<stop offset="0.87" stop-color="#8D58BD"/>
<stop offset="0.88" stop-color="#8D57BC"/>
<stop offset="0.89" stop-color="#8E55BC"/>
<stop offset="0.9" stop-color="#8E51BB"/>
<stop offset="0.91" stop-color="#8E50BA"/>
<stop offset="0.92" stop-color="#8E4EBA"/>
<stop offset="0.93" stop-color="#8E4CB9"/>
<stop offset="0.94" stop-color="#8E4AB9"/>
<stop offset="0.95" stop-color="#8E49B8"/>
<stop offset="0.96" stop-color="#8E47B7"/>
<stop offset="0.97" stop-color="#8E43B6"/>
<stop offset="0.98" stop-color="#8E41B6"/>
<stop offset="0.99" stop-color="#8E3FB5"/>
<stop offset="1" stop-color="#8F3EB5"/>
</linearGradient>
</defs>
</svg>
