<svg width="169" height="40" viewBox="0 0 169 40" fill="none" xmlns="http://www.w3.org/2000/svg">
<path fill-rule="evenodd" clip-rule="evenodd" d="M32.5955 26.6316V13.3723C32.5966 12.7614 32.4343 12.1615 32.1257 11.6352C31.8171 11.1089 31.3735 10.6757 30.8412 10.3808L19.8067 4.32123C19.3085 4.04651 18.7494 3.90249 18.1811 3.90249C17.6128 3.90249 17.0537 4.04651 16.5554 4.32123L5.53267 10.3808C5.00038 10.6757 4.55673 11.1089 4.24812 11.6352C3.9395 12.1615 3.77727 12.7614 3.77838 13.3723V26.6316C3.77727 27.2425 3.9395 27.8425 4.24812 28.3687C4.55673 28.895 5.00038 29.3283 5.53267 29.6232L16.5554 35.6827C17.0537 35.9574 17.6128 36.1015 18.1811 36.1015C18.7494 36.1015 19.3085 35.9574 19.8067 35.6827L30.8295 29.6232C31.3639 29.3298 31.81 28.8972 32.1207 28.3708C32.4314 27.8444 32.5954 27.2437 32.5955 26.6316ZM3.90703 7.38332C2.842 7.9741 1.95447 8.84164 1.33725 9.89522C0.720033 10.9488 0.395799 12.1497 0.398454 13.3723V26.6316C0.395799 27.8543 0.720033 29.0552 1.33725 30.1087C1.95447 31.1623 2.842 32.0298 3.90703 32.6206L14.9298 38.6743C15.9263 39.2237 17.0445 39.5118 18.1811 39.5118C19.3176 39.5118 20.4359 39.2237 21.4324 38.6743L32.4551 32.6206C33.5197 32.0294 34.4069 31.1617 35.0241 30.1082C35.6412 29.0548 35.9657 27.8541 35.9637 26.6316V13.3723C35.9657 12.1498 35.6412 10.9492 35.0241 9.8957C34.4069 8.84224 33.5197 7.97459 32.4551 7.38332L21.4324 1.32966C20.4359 0.780222 19.3176 0.492188 18.1811 0.492188C17.0445 0.492188 15.9263 0.780222 14.9298 1.32966L3.90703 7.38332Z" fill="url(#paint0_linear_3620_26134)"/>
<path fill-rule="evenodd" clip-rule="evenodd" d="M25.9241 25.0793C26.0853 25.2206 26.2152 25.3945 26.3053 25.5895C26.3954 25.7846 26.4436 25.9966 26.4469 26.2116C26.4503 26.4266 26.4085 26.64 26.3245 26.8378C26.2405 27.0355 26.116 27.2134 25.9592 27.3597C24.1327 28.9528 21.7931 29.8257 19.3747 29.8164C13.9364 29.8164 9.52734 25.5318 9.52734 20.2481C9.52734 14.9643 13.9364 10.6798 19.3747 10.6798C21.8603 10.67 24.2601 11.5921 26.1054 13.2658C26.2976 13.4595 26.4376 13.6993 26.5121 13.9625C26.5866 14.2257 26.5931 14.5036 26.5311 14.77C26.4691 15.0365 26.3405 15.2826 26.1576 15.4853C25.9746 15.6879 25.7433 15.8404 25.4855 15.9282C25.0923 16.0658 24.6705 16.0991 24.2608 16.025C23.851 15.9509 23.4672 15.7718 23.1465 15.5051C22.0617 14.699 20.7472 14.2661 19.3981 14.2708C18.6011 14.2457 17.8071 14.3818 17.0634 14.671C16.3197 14.9603 15.6414 15.3967 15.0687 15.9545C14.4961 16.5123 14.0408 17.1801 13.7299 17.9181C13.4189 18.6562 13.2587 19.4495 13.2587 20.251C13.2587 21.0525 13.4189 21.8458 13.7299 22.5839C14.0408 23.322 14.4961 23.9897 15.0687 24.5475C15.6414 25.1053 16.3197 25.5418 17.0634 25.831C17.8071 26.1202 18.6011 26.2563 19.3981 26.2312C20.6909 26.2348 21.9531 25.8365 23.012 25.091C23.895 24.4621 25.1697 24.3211 25.9358 25.091L25.9241 25.0793Z" fill="#FFFFFF"/>
<path fill-rule="evenodd" clip-rule="evenodd" d="M50.0224 21.8648C48.8307 21.899 47.6521 21.6064 46.6133 21.0185C45.6721 20.4428 44.912 19.6115 44.4204 18.6205C43.9155 17.4986 43.6543 16.2814 43.6543 15.0501C43.6543 13.8187 43.9155 12.6015 44.4204 11.4796C44.9077 10.481 45.6684 9.64298 46.6133 9.06399C47.6478 8.46278 48.8279 8.16168 50.0224 8.19415C51.4032 8.129 52.7641 8.54413 53.876 9.36962C54.9076 10.184 55.5864 11.3673 55.7706 12.6727H53.1275C52.9971 12.0017 52.6242 11.4029 52.0808 10.9918C51.4724 10.5491 50.7315 10.3292 49.9815 10.3688C49.4435 10.3428 48.9068 10.4417 48.4129 10.6578C47.9191 10.8739 47.4814 11.2013 47.1337 11.6148C46.4629 12.6271 46.1049 13.8162 46.1049 15.0324C46.1049 16.2487 46.4629 17.4378 47.1337 18.4501C47.7642 19.1034 48.5957 19.5238 49.4934 19.6433C50.3912 19.7628 51.3028 19.5743 52.0808 19.1084C52.6172 18.7241 52.9907 18.1515 53.1275 17.5039H55.7706C55.575 18.7744 54.8956 19.9188 53.876 20.6952C52.7587 21.5093 51.4012 21.9213 50.0224 21.8648Z" fill="#FFFFFF"/>
<path fill-rule="evenodd" clip-rule="evenodd" d="M58.4883 21.6164V8.44531H60.8741V19.7357H66.6457V21.6164H58.4883Z" fill="#FFFFFF"/>
<path fill-rule="evenodd" clip-rule="evenodd" d="M74.4474 21.866C73.244 21.8945 72.0555 21.5939 71.009 20.9962C70.0386 20.4238 69.2436 19.5942 68.7108 18.5982C68.1443 17.4967 67.8609 16.2703 67.8863 15.0307C67.864 13.8045 68.1475 12.5921 68.7108 11.5043C69.243 10.5032 70.0378 9.66776 71.009 9.08867C72.0628 8.51767 73.2414 8.21875 74.4386 8.21875C75.6359 8.21875 76.8143 8.51767 77.8682 9.08867C78.846 9.6594 79.6428 10.497 80.1663 11.5043C80.7297 12.5921 81.0132 13.8045 80.9909 15.0307C81.0163 16.2703 80.7329 17.4967 80.1663 18.5982C79.642 19.6004 78.845 20.432 77.8682 20.9962C76.8275 21.5924 75.645 21.8931 74.4474 21.866ZM74.4474 19.6973C75.0033 19.7223 75.5578 19.6236 76.0713 19.4082C76.5848 19.1928 77.0447 18.8661 77.418 18.4513C78.1467 17.4624 78.5401 16.2643 78.5401 15.0336C78.5401 13.803 78.1467 12.6049 77.418 11.6159C77.0454 11.2002 76.5857 10.8728 76.072 10.6573C75.5583 10.4418 75.0034 10.3437 74.4474 10.3699C73.8889 10.3447 73.3317 10.4433 72.8153 10.6586C72.2989 10.8739 71.836 11.2008 71.4592 11.6159C70.7305 12.6049 70.3371 13.803 70.3371 15.0336C70.3371 16.2643 70.7305 17.4624 71.4592 18.4513C71.8367 18.8655 72.2998 19.1917 72.816 19.4069C73.3322 19.6222 73.889 19.7213 74.4474 19.6973Z" fill="#FFFFFF"/>
<path fill-rule="evenodd" clip-rule="evenodd" d="M88.5984 21.8633C87.6977 21.8696 86.8076 21.6685 85.9962 21.2755C85.2191 20.8819 84.5729 20.2692 84.1367 19.5123C83.6621 18.6082 83.4303 17.5953 83.4642 16.5737V8.44531H85.8617V16.6031C85.7959 17.4376 86.0583 18.2648 86.5927 18.907C86.8686 19.1657 87.1937 19.3656 87.5484 19.4949C87.9031 19.6242 88.2801 19.6801 88.6569 19.6593C89.03 19.6796 89.4034 19.6234 89.7543 19.4941C90.1051 19.3647 90.4261 19.165 90.6977 18.907C90.9698 18.5928 91.1767 18.2272 91.3062 17.8315C91.4357 17.4359 91.4853 17.0182 91.452 16.6031V8.44531H93.8496V16.5854C93.8865 17.6124 93.6396 18.6296 93.1362 19.5241C92.6847 20.2877 92.0197 20.9009 91.224 21.2873C90.4031 21.6756 89.5056 21.8725 88.5984 21.8633Z" fill="#FFFFFF"/>
<path fill-rule="evenodd" clip-rule="evenodd" d="M97.0664 21.6148V8.44364H101.511C102.814 8.39108 104.109 8.67647 105.271 9.27235C106.232 9.77633 107.003 10.5809 107.469 11.5645C107.973 12.647 108.221 13.8316 108.194 15.0263C108.22 16.2283 107.972 17.4203 107.469 18.5115C106.995 19.4892 106.225 20.2913 105.271 20.8037C104.105 21.3871 102.812 21.666 101.511 21.6148H97.0664ZM99.4464 19.5459H101.399C102.293 19.5889 103.184 19.4071 103.99 19.017C104.605 18.6725 105.083 18.127 105.347 17.4712C105.893 15.8935 105.893 14.1767 105.347 12.5989C105.086 11.9371 104.607 11.3852 103.99 11.0356C103.186 10.6383 102.295 10.4522 101.399 10.4948H99.4464V19.5459Z" fill="#FFFFFF"/>
<path fill-rule="evenodd" clip-rule="evenodd" d="M110.912 21.6202V8.44904H115.637C116.514 8.41609 117.386 8.60185 118.175 8.98976C118.813 9.30851 119.339 9.81485 119.684 10.4415C120.018 11.0597 120.189 11.7538 120.181 12.4574C120.186 13.2353 119.969 13.9983 119.555 14.6555C119.111 15.3535 118.432 15.8685 117.643 16.1072L120.309 21.6202H117.602L115.216 16.4246H113.263V21.6202H110.912ZM113.251 14.6555H115.479C115.796 14.6865 116.116 14.6501 116.418 14.5489C116.721 14.4477 116.998 14.2837 117.233 14.0678C117.615 13.6467 117.815 13.0909 117.789 12.522C117.801 12.2466 117.759 11.9715 117.663 11.7131C117.568 11.4546 117.422 11.218 117.233 11.0174C116.996 10.8048 116.718 10.643 116.416 10.5419C116.115 10.4409 115.796 10.4027 115.479 10.4297H113.269L113.251 14.6555Z" fill="#FFFFFF"/>
<path fill-rule="evenodd" clip-rule="evenodd" d="M123.029 21.6164V8.44531H131.695V10.379H125.45V13.9935H131.111V15.886H125.444V19.6887H131.695V21.6282L123.029 21.6164Z" fill="#FFFFFF"/>
<path fill-rule="evenodd" clip-rule="evenodd" d="M138.391 21.6164L133.66 8.44531H136.192L139.882 19.148L143.56 8.44531H146.057L141.326 21.6164H138.391Z" fill="#FFFFFF"/>
<path fill-rule="evenodd" clip-rule="evenodd" d="M148.25 21.6164V8.44531H156.659V10.379H150.607V13.9935H156.109V15.886H150.607V19.6887H156.659V21.6282L148.25 21.6164Z" fill="#FFFFFF"/>
<path fill-rule="evenodd" clip-rule="evenodd" d="M159.623 21.6164V8.44531H162.009V19.7357H167.786V21.6164H159.623Z" fill="#FFFFFF"/>
<path fill-rule="evenodd" clip-rule="evenodd" d="M45.875 32.0534V27.3516H46.8632V32.0534H45.875Z" fill="#FFFFFF"/>
<path fill-rule="evenodd" clip-rule="evenodd" d="M55.5234 32.0534V27.3516H56.3889L58.611 30.6781V27.3516H59.4764V32.0534H58.5993L56.3772 28.7327V32.0534H55.5234Z" fill="#FFFFFF"/>
<path fill-rule="evenodd" clip-rule="evenodd" d="M68.1309 32.0534V27.3516H68.9963L71.2242 30.6781V27.3516H72.0897V32.0534H71.2242L68.9963 28.7327V32.0534H68.1309Z" fill="#FFFFFF"/>
<path fill-rule="evenodd" clip-rule="evenodd" d="M83.095 32.0588C82.6626 32.0679 82.236 31.9582 81.8612 31.7414C81.515 31.5294 81.2306 31.2294 81.0366 30.8716C80.8441 30.4669 80.7441 30.0241 80.7441 29.5756C80.7441 29.1271 80.8441 28.6843 81.0366 28.2796C81.2311 27.9207 81.5153 27.6188 81.8612 27.4039C82.236 27.1872 82.6626 27.0774 83.095 27.0865C83.5256 27.0767 83.9506 27.1865 84.323 27.4039C84.6722 27.6148 84.9573 27.9176 85.1475 28.2796C85.3401 28.6843 85.44 29.1271 85.44 29.5756C85.44 30.0241 85.3401 30.4669 85.1475 30.8716C84.9614 31.2377 84.678 31.5448 84.3289 31.759C83.9529 31.9713 83.5259 32.0751 83.095 32.0588ZM83.095 31.2712C83.2953 31.2806 83.4952 31.2442 83.6795 31.1648C83.8638 31.0854 84.0279 30.965 84.1593 30.8128C84.4215 30.453 84.5629 30.0186 84.5629 29.5727C84.5629 29.1267 84.4215 28.6923 84.1593 28.3325C84.0273 28.1814 83.863 28.0621 83.6787 27.9838C83.4944 27.9054 83.2949 27.8699 83.095 27.88C82.8944 27.8711 82.6944 27.9071 82.5094 27.9854C82.3243 28.0637 82.1588 28.1822 82.0249 28.3325C81.7626 28.6923 81.6212 29.1267 81.6212 29.5727C81.6212 30.0186 81.7626 30.453 82.0249 30.8128C82.1583 30.9642 82.3235 31.0838 82.5086 31.1631C82.6937 31.2424 82.894 31.2793 83.095 31.2712Z" fill="#FFFFFF"/>
<path fill-rule="evenodd" clip-rule="evenodd" d="M95.1526 32.0534L93.3516 27.3516H94.3164L95.7082 31.1953L97.1057 27.3516H98.0531L96.2578 32.0534H95.1526Z" fill="#FFFFFF"/>
<path fill-rule="evenodd" clip-rule="evenodd" d="M105.475 32.0534L107.229 27.3516H108.205L109.96 32.0534H109.036L108.656 30.9602H106.802L106.416 32.0534H105.475ZM107.007 30.2902H108.381L107.72 28.3213L107.007 30.2902Z" fill="#FFFFFF"/>
<path fill-rule="evenodd" clip-rule="evenodd" d="M118.749 32.0535V28.0275H117.34V27.3281H121.053V28.0275H119.638V32.0535H118.749Z" fill="#FFFFFF"/>
<path fill-rule="evenodd" clip-rule="evenodd" d="M129.455 32.0534V27.3516H130.449V32.0534H129.455Z" fill="#FFFFFF"/>
<path fill-rule="evenodd" clip-rule="evenodd" d="M141.333 32.0584C140.88 32.0693 140.432 31.9598 140.035 31.741C139.673 31.5342 139.372 31.2339 139.164 30.8712C138.96 30.4699 138.854 30.0257 138.854 29.5752C138.854 29.1247 138.96 28.6805 139.164 28.2792C139.371 27.9143 139.672 27.6119 140.035 27.4035C140.435 27.1949 140.879 27.0859 141.33 27.0859C141.781 27.0859 142.225 27.1949 142.625 27.4035C142.989 27.6092 143.289 27.9124 143.491 28.2792C143.695 28.6805 143.801 29.1247 143.801 29.5752C143.801 30.0257 143.695 30.4699 143.491 30.8712C143.288 31.2362 142.989 31.5374 142.625 31.741C142.229 31.9578 141.784 32.0672 141.333 32.0584ZM141.333 31.2708C141.542 31.2799 141.75 31.2437 141.944 31.1646C142.138 31.0855 142.312 30.9653 142.456 30.8124C142.729 30.4573 142.877 30.0211 142.877 29.5723C142.877 29.1234 142.729 28.6873 142.456 28.3321C142.152 28.0415 141.749 27.8793 141.33 27.8793C140.911 27.8793 140.508 28.0415 140.204 28.3321C139.927 28.6856 139.777 29.1224 139.777 29.5723C139.777 30.0221 139.927 30.459 140.204 30.8124C140.349 30.9661 140.524 31.0867 140.719 31.1658C140.914 31.245 141.123 31.2808 141.333 31.2708Z" fill="#FFFFFF"/>
<path fill-rule="evenodd" clip-rule="evenodd" d="M152.209 32.0534V27.3516H153.074L155.297 30.6781V27.3516H156.162V32.0534H155.297L153.074 28.7327V32.0534H152.209Z" fill="#FFFFFF"/>
<path fill-rule="evenodd" clip-rule="evenodd" d="M166.612 32.056C166.295 32.0622 165.98 32.0021 165.688 31.8796C165.434 31.7656 165.216 31.5849 165.056 31.3566C164.897 31.1078 164.814 30.8177 164.816 30.522H165.735C165.734 30.631 165.755 30.739 165.796 30.8398C165.837 30.9407 165.898 31.0324 165.974 31.1097C166.059 31.1888 166.158 31.2499 166.267 31.2893C166.375 31.3287 166.491 31.3456 166.606 31.3389C166.803 31.3504 166.997 31.2922 167.156 31.1744C167.218 31.1161 167.267 31.0456 167.301 30.9672C167.335 30.8888 167.352 30.8043 167.352 30.7189C167.352 30.6334 167.335 30.5489 167.301 30.4705C167.267 30.3922 167.218 30.3217 167.156 30.2634C167.018 30.1409 166.857 30.0488 166.682 29.993L166.044 29.7756C165.728 29.6788 165.44 29.5075 165.202 29.276C165.104 29.1687 165.028 29.0427 164.979 28.9054C164.93 28.7682 164.908 28.6224 164.916 28.4767C164.907 28.2191 164.977 27.965 165.115 27.7479C165.262 27.5374 165.464 27.3724 165.699 27.2718C165.963 27.1595 166.246 27.1016 166.533 27.1016C166.819 27.1016 167.102 27.1595 167.366 27.2718C167.603 27.3732 167.805 27.5404 167.951 27.7538C168.095 27.9718 168.174 28.2267 168.179 28.4884H167.249C167.244 28.3189 167.173 28.1583 167.05 28.0417C166.983 27.9741 166.903 27.9213 166.814 27.8869C166.725 27.8524 166.631 27.8371 166.536 27.8419C166.362 27.8355 166.191 27.8872 166.05 27.9888C165.987 28.039 165.938 28.1036 165.905 28.1773C165.872 28.251 165.858 28.3315 165.863 28.412C165.859 28.4833 165.87 28.5547 165.895 28.6215C165.921 28.6883 165.959 28.7491 166.009 28.7999C166.13 28.902 166.269 28.9798 166.419 29.0291C166.588 29.0938 166.787 29.1643 167.003 29.2348C167.225 29.3151 167.441 29.4134 167.647 29.5287C167.853 29.6323 168.023 29.7946 168.138 29.9954C168.252 30.1961 168.305 30.4263 168.29 30.6572C168.294 30.9033 168.229 31.1456 168.103 31.3566C167.962 31.5838 167.759 31.7654 167.518 31.8796C167.234 32.0089 166.923 32.0693 166.612 32.056Z" fill="#FFFFFF"/>
<defs>
<linearGradient id="paint0_linear_3620_26134" x1="5.328" y1="-2.37895" x2="31.236" y2="42.2692" gradientUnits="userSpaceOnUse">
<stop stop-color="#5AB2DA"/>
<stop offset="0.01" stop-color="#5AB1D9"/>
<stop offset="0.02" stop-color="#5BB1D9"/>
<stop offset="0.03" stop-color="#5DB1D9"/>
<stop offset="0.04" stop-color="#5EB1D9"/>
<stop offset="0.05" stop-color="#5FB1D9"/>
<stop offset="0.06" stop-color="#5FB1D9"/>
<stop offset="0.07" stop-color="#60B1D9"/>
<stop offset="0.08" stop-color="#61B1D9"/>
<stop offset="0.09" stop-color="#62B0D9"/>
<stop offset="0.1" stop-color="#63B0D9"/>
<stop offset="0.11" stop-color="#64B0D9"/>
<stop offset="0.12" stop-color="#65AFD9"/>
<stop offset="0.13" stop-color="#66AFD9"/>
<stop offset="0.14" stop-color="#66AFD9"/>
<stop offset="0.15" stop-color="#67AED8"/>
<stop offset="0.16" stop-color="#68AED8"/>
<stop offset="0.17" stop-color="#69ADD8"/>
<stop offset="0.18" stop-color="#6AADD8"/>
<stop offset="0.19" stop-color="#6BACD8"/>
<stop offset="0.2" stop-color="#6CACD8"/>
<stop offset="0.21" stop-color="#6CABD8"/>
<stop offset="0.22" stop-color="#6DABD7"/>
<stop offset="0.23" stop-color="#6EAAD7"/>
<stop offset="0.24" stop-color="#6FA9D7"/>
<stop offset="0.25" stop-color="#70A9D7"/>
<stop offset="0.26" stop-color="#70A8D7"/>
<stop offset="0.27" stop-color="#71A8D6"/>
<stop offset="0.28" stop-color="#72A7D6"/>
<stop offset="0.29" stop-color="#72A6D6"/>
<stop offset="0.3" stop-color="#74A5D6"/>
<stop offset="0.31" stop-color="#74A4D5"/>
<stop offset="0.32" stop-color="#75A4D5"/>
<stop offset="0.33" stop-color="#76A3D5"/>
<stop offset="0.34" stop-color="#76A2D5"/>
<stop offset="0.35" stop-color="#77A1D4"/>
<stop offset="0.36" stop-color="#77A1D4"/>
<stop offset="0.37" stop-color="#789FD4"/>
<stop offset="0.38" stop-color="#799ED3"/>
<stop offset="0.39" stop-color="#7A9ED3"/>
<stop offset="0.4" stop-color="#7A9DD3"/>
<stop offset="0.41" stop-color="#7B9CD3"/>
<stop offset="0.42" stop-color="#7B9BD2"/>
<stop offset="0.43" stop-color="#7C99D2"/>
<stop offset="0.44" stop-color="#7D98D1"/>
<stop offset="0.45" stop-color="#7D97D1"/>
<stop offset="0.46" stop-color="#7E96D1"/>
<stop offset="0.47" stop-color="#7E95D1"/>
<stop offset="0.48" stop-color="#7F94D0"/>
<stop offset="0.49" stop-color="#7F93D0"/>
<stop offset="0.5" stop-color="#8091CF"/>
<stop offset="0.51" stop-color="#8190CF"/>
<stop offset="0.52" stop-color="#818FCF"/>
<stop offset="0.53" stop-color="#828ECE"/>
<stop offset="0.54" stop-color="#828DCE"/>
<stop offset="0.55" stop-color="#838CCE"/>
<stop offset="0.56" stop-color="#838BCD"/>
<stop offset="0.57" stop-color="#8489CC"/>
<stop offset="0.58" stop-color="#8487CC"/>
<stop offset="0.59" stop-color="#8586CC"/>
<stop offset="0.6" stop-color="#8585CB"/>
<stop offset="0.61" stop-color="#8584CB"/>
<stop offset="0.62" stop-color="#8683CB"/>
<stop offset="0.63" stop-color="#8680CA"/>
<stop offset="0.64" stop-color="#877FC9"/>
<stop offset="0.65" stop-color="#877DC9"/>
<stop offset="0.66" stop-color="#887CC8"/>
<stop offset="0.67" stop-color="#887BC8"/>
<stop offset="0.68" stop-color="#8879C8"/>
<stop offset="0.69" stop-color="#8878C7"/>
<stop offset="0.7" stop-color="#8975C6"/>
<stop offset="0.71" stop-color="#8974C6"/>
<stop offset="0.72" stop-color="#8A73C5"/>
<stop offset="0.73" stop-color="#8A71C5"/>
<stop offset="0.74" stop-color="#8A70C5"/>
<stop offset="0.75" stop-color="#8A6EC4"/>
<stop offset="0.76" stop-color="#8B6DC4"/>
<stop offset="0.77" stop-color="#8B6AC3"/>
<stop offset="0.78" stop-color="#8B68C2"/>
<stop offset="0.79" stop-color="#8C67C2"/>
<stop offset="0.8" stop-color="#8C65C1"/>
<stop offset="0.81" stop-color="#8C64C1"/>
<stop offset="0.82" stop-color="#8C62C0"/>
<stop offset="0.83" stop-color="#8D5FBF"/>
<stop offset="0.84" stop-color="#8D5DBF"/>
<stop offset="0.85" stop-color="#8D5CBE"/>
<stop offset="0.86" stop-color="#8D5ABE"/>
<stop offset="0.87" stop-color="#8D58BD"/>
<stop offset="0.88" stop-color="#8D57BC"/>
<stop offset="0.89" stop-color="#8E55BC"/>
<stop offset="0.9" stop-color="#8E51BB"/>
<stop offset="0.91" stop-color="#8E50BA"/>
<stop offset="0.92" stop-color="#8E4EBA"/>
<stop offset="0.93" stop-color="#8E4CB9"/>
<stop offset="0.94" stop-color="#8E4AB9"/>
<stop offset="0.95" stop-color="#8E49B8"/>
<stop offset="0.96" stop-color="#8E47B7"/>
<stop offset="0.97" stop-color="#8E43B6"/>
<stop offset="0.98" stop-color="#8E41B6"/>
<stop offset="0.99" stop-color="#8E3FB5"/>
<stop offset="1" stop-color="#8F3EB5"/>
</linearGradient>
</defs>
</svg>
